{"title":"DPFanatics ~ Lana Roberts - A Tasty Sandwich 2014 SATRip","uid":10807361,"size":548562545,"categoryP":"porn","categoryS":"movie_clips","magnet":"?xt=urn:btih:449894ada6a720dc654f06312cb05517fce8791c&amp;dn=DPFanatics+%7E+Lana+Roberts+-+A+Tasty+Sandwich+2014+SATRip&amp;tr=udp%3A%2F%2Ftracker.openbittorrent.com%3A80&amp;tr=udp%3A%2F%2Fopen.demonii.com%3A1337&amp;tr=udp%3A%2F%2Ftracker.coppersurfer.tk%3A6969&amp;tr=udp%3A%2F%2Fexodus.desync.com%3A6969","seeders":0,"leechers":1,"uploader":"ThousandPeers","files":-1,"time":1408391943,"description":"Format                                   : Windows Media\nFile size                                : 257 MiB\nDuration                                 : 11mn 50s\nOverall bit rate mode                    : Constant\nOverall bit rate                         : 3 039 Kbps\nMaximum Overall bit rate                 : 3 055 Kbps\nEncoded date                             : UTC 2013-07-30 17:08:04.580\n\nVideo\nID                                       : 2\nFormat                                   : VC-1\nFormat profile                           : MP@HL\nCodec ID                                 : WMV3\nCodec ID/Info                            : Windows Media Video 9\nCodec ID/Hint                            : WMV3\nDescription of the codec                 : Windows Media Video 9 - Professional\nDuration                                 : 11mn 50s\nBit rate mode                            : Constant\nBit rate                                 : 2 900 Kbps\nWidth                                    : 1 280 pixels\nHeight                                   : 720 pixels\nDisplay aspect ratio                     : 16:9\nFrame rate                               : 29.970 fps\nBit depth                                : 8 bits\nScan type                                : Progressive\nCompression mode                         : Lossy\nBits/(Pixel*Frame)                       : 0.105\nStream size                              : 246 MiB (95%)\nLanguage                                 : English (US)\n\nAudio\nID                                       : 1\nFormat                                   : WMA\nFormat version                           : Version 2\nCodec ID                                 : 161\nCodec ID/Info                            : Windows Media Audio\nDescription of the codec                 : Windows Media Audio 9.2 - 128 kbps, 44 kHz, stereo (A/V) 1-pass CBR\nDuration                                 : 11mn 50s\nBit rate mode                            : Constant\nBit rate                                 : 128 Kbps\nChannel(s)                               : 2 channels\nSampling rate                            : 44.1 KHz\nBit depth                                : 16 bits\nStream size                              : 10.8 MiB (4%)","torrent":{"xt":"urn:btih:449894ada6a720dc654f06312cb05517fce8791c","amp;dn":"DPFanatics+%7E+Lana+Roberts+-+A+Tasty+Sandwich+2014+SATRip","amp;tr":["udp%3A%2F%2Ftracker.openbittorrent.com%3A80","udp%3A%2F%2Fopen.demonii.com%3A1337","udp%3A%2F%2Ftracker.coppersurfer.tk%3A6969","udp%3A%2F%2Fexodus.desync.com%3A6969"],"infoHash":"449894ada6a720dc654f06312cb05517fce8791c","infoHashBuffer":{"type":"Buffer","data":[68,152,148,173,166,167,32,220,101,79,6,49,44,176,85,23,252,232,121,28]},"announce":[],"urlList":[]}}